# xmcd
#
# Track frame offsets: 
#        187
#        12092
#        21660
#        40780
#        54195
#        67862
#        79857
#        93037
#        107427
#        122762
#        135172
#
# Disc length: 1971 seconds
#
# Revision: 6
# Processed by: cddbd v1.5.2PL0 Copyright (c) Steve Scherf et al.
# Submitted via: ExactAudioCopy v0.95b3
#
DISCID=7707b10b
DTITLE=Otis Redding - Otis Blue - Otis Redding Sings Soul [1993 MFSL]
DYEAR=1966
DGENRE=Rock
TTITLE0=Ole Man Trouble
TTITLE1=Respect
TTITLE2=A Change Is Gonna Come
TTITLE3=Down In The Valley
TTITLE4=I've Been Loving You Too Long
TTITLE5=Shake
TTITLE6=My Girl
TTITLE7=Wonderful World
TTITLE8=Rock Me Baby
TTITLE9=Satisfaction
TTITLE10=You Don't Miss Your Water
EXTD=Original Master Recording
EXTT0=
EXTT1=
EXTT2=
EXTT3=
EXTT4=
EXTT5=
EXTT6=
EXTT7=
EXTT8=
EXTT9=
EXTT10=
PLAYORDER=
